No subtitles, audio in German.

General
Complete name                    : C:Sissi.Die.junge.Kaiserin[1956]DvDrip[de].avi
Format                           : MPEG-PS
File size                        : 759 MiB
Duration                         : 1h 41mn
Overall bit rate                 : 1 049 Kbps

Video
ID                               : 224 (0xE0)
Format                           : MPEG Video
Format version                   : Version 1
Format settings, Matrix          : Default
Duration                         : 1h 41mn
Bit rate mode                    : Variable
Bit rate                         : 895 Kbps
Width                            : 352 pixels
Height                           : 288 pixels
Display aspect ratio             : 4:3
Frame rate                       : 25.000 fps
Scan type                        : Progressive
Bits/(Pixel*Frame)               : 0.353
Stream size                      : 648 MiB (85%)

Audio
ID                               : 192 (0xC0)
Format                           : MPEG Audio
Format version                   : Version 1
Format profile                   : Layer 2
Duration                         : 1h 41mn
Bit rate mode                    : Constant
Bit rate                         : 112 Kbps
Channel(s)                       : 2 channels
Sampling rate                    : 44.1 KHz
Resolution                       : 16 bits
Stream size                      : 81.1 MiB (11%)

